<?xml version="1.0" encoding="UTF-8"?>
<svg id="Layer_1" xmlns="http://www.w3.org/2000/svg" width="1000" height="316.91047" viewBox="0 0 1000 316.91047">
  <g>
    <polygon points="246.44374 316.30465 246.44362 316.30489 246.44374 316.30656 246.44374 316.30465"/>
    <g>
      <path d="M220.89367,55.92843c0-25.22564-13.11271-46.10869-31.97963-55.92843l-8.98815,15.57408c14.02827,6.27486,23.9742,21.98325,23.9742,40.35435,0,23.90693-16.83411,43.6726-37.60766,43.6726s-37.60754-19.76567-37.60754-43.6726c0-18.3711,9.94581-34.07948,23.97408-40.35435l-8.98815-15.57408c-18.86681,9.81974-31.97951,30.70279-31.97951,55.92843,0,34.43254,24.44462,60.66606,54.60113,60.66606s54.60124-26.23352,54.60124-60.66606Z"/>
      <path d="M117.87813,151.77083c9.31926-28.68082-8.07664-60.03533-40.82393-70.67569-23.99102-7.79539-47.90295-1.77769-63.07281,13.13084l12.03409,13.36151c10.30281-11.40253,28.31536-16.00753,45.78772-10.33048,22.73671,7.38794,36.33248,29.5055,29.91306,49.26282-6.41942,19.75732-30.41963,29.65936-53.15646,22.2707-17.47224-5.6761-29.33839-19.98919-30.97044-35.26986l-17.58936,3.73548c3.50886,20.97775,19.31803,39.90086,43.30881,47.69625,32.74741,10.64131,65.25019-4.50075,74.56933-33.18158Z"/>
      <path d="M136.37161,208.68305c-24.39655-17.72439-59.59341-10.86984-79.8319,16.98678-14.8273,20.40761-16.49382,45.01016-7.00244,64.04324l16.42583-7.31662c-7.66109-13.32263-6.47405-31.87718,4.32423-46.74037,14.05188-19.34057,39.28945-25.4358,56.09565-13.2253,16.8062,12.2105,18.80717,38.09502,4.75529,57.43727-10.79828,14.86153-28.07753,21.72466-43.11558,18.55621l-1.88241,17.88231c21.03572,3.14506,43.91855-6.04156,58.74572-26.44893,20.23872-27.85687,15.88229-63.44853-8.51438-81.17458Z"/>
      <path d="M196.21216,208.68138c-24.39751,17.72606-28.75465,53.31772-8.5145,81.17458,14.82646,20.40738,37.71024,29.59567,58.74596,26.44893l-1.88313-17.88254c-15.03639,3.17035-32.3173-3.69278-43.11498-18.55598-14.05188-19.34057-12.05103-45.22676,4.75445-57.43727,16.80715-12.2105,42.04305-6.1136,56.09494,13.22697,10.79935,14.86177,11.98555,33.41607,4.32446,46.7387l16.42571,7.31662c9.49233-19.03308,7.82569-43.63586-7.00232-64.04324-20.23788-27.85663-55.43307-34.71117-79.83058-16.98678Z"/>
      <path d="M284.02361,168.79125c-22.73767,7.38556-46.73703-2.51505-53.15646-22.27237-6.41942-19.75732,7.17539-41.87487,29.91318-49.26377,17.47247-5.67681,35.48408-1.07205,45.78784,10.33048l12.03409-13.36128c-15.16914-14.90876-39.08275-20.9267-63.07376-13.13131-32.74741,10.64155-50.14427,41.99606-40.82501,70.67616,9.31914,28.67987,41.82299,43.8205,74.57028,33.18086,23.99102-7.79396,39.80019-26.71778,43.30815-47.69482l-17.58835-3.73643c-1.63301,15.28162-13.49916,29.594-30.96996,35.27248Z"/>
    </g>
    <g>
      <path d="M489.86705,55.04422c18.37225,0,34.08062,9.94572,40.35522,23.97361l15.57361-8.98793c-9.81879-18.8668-30.70269-31.97964-55.92883-31.97964-34.4324,0-60.66498,24.4448-60.66498,54.60131s26.23432,54.60106,60.66498,54.60106c25.22559,0,46.10899-13.11235,55.92815-31.9779l-15.57293-8.98793c-6.2746,14.02789-21.98297,23.97361-40.35522,23.97361-23.90651,0-43.67189-16.83367-43.67189-37.60809s19.76538-37.60809,43.67189-37.60809Z"/>
      <polygon points="545.79588 115.26827 545.7952 115.26976 545.79588 115.27001 545.79588 115.26827"/>
      <path d="M577.36317,106.67051c0-14.31418,8.11588-23.75839,23.16791-23.75839,14.31518,0,21.39666,9.73895,21.39666,23.46241v39.25279h17.70889v-42.20345c0-21.69246-12.10119-36.7435-33.64478-36.7435-13.42958,0-23.16791,5.31109-28.62868,11.65752v-38.66181h-17.70715v105.95199h17.70715v-38.95755Z"/>
      <path d="M698.66511,66.68161c-24.64331,0-44.26871,16.23151-44.26871,40.28514s19.6254,40.28588,44.26871,40.28588c24.49637,0,44.12171-16.23349,44.12171-40.28588s-19.62534-40.28514-44.12171-40.28514ZM698.66511,132.05372c-15.19903,0-27.30016-9.29734-27.30016-25.08598s12.10112-25.08623,27.30016-25.08623c15.0521,0,27.15142,9.29634,27.15142,25.08623s-12.09932,25.08598-27.15142,25.08598Z"/>
      <path d="M775.84528,82.17452v-14.01845h-17.70709v77.47125h17.70709v-34.38331c0-18.44481,11.50965-25.9717,29.21854-25.9717,3.98351,0,5.60602.44286,9.14853,1.32833v-17.70796c-2.21231-.58973-5.16503-1.18046-8.70574-1.18046-12.54392,0-23.02085,3.9845-29.66133,14.4623Z"/>
      <path d="M888.29113,107.70336v.00199c0,14.31393-7.96888,23.46241-22.87211,23.46241-14.16644,0-20.95392-8.11588-20.95392-21.83908v-41.17086h-17.70882v43.08818c0,21.69221,12.54392,36.00664,33.64478,36.00664,13.28078,0,22.43099-5.31283,27.89008-11.65926v10.03494h17.70882v-77.4715h-17.70882v39.54654Z"/>
      <path d="M961.63299,98.40553l-.00168.00174c-16.97035-2.06519-22.72505-2.80404-22.72505-8.26375,0-5.31209,6.0505-8.85447,18.88854-8.85447,12.83966,0,23.31485,4.57598,29.07141,12.24825l11.36253-10.92066c-6.64036-8.85348-21.10266-15.93676-39.6954-15.93676-22.42931,0-36.59569,10.47681-36.59569,25.08598,0,16.37962,15.3461,19.77339,35.56303,22.28219,18.44581,2.21331,25.08617,2.36118,25.08617,9.14872,0,6.64042-8.26462,9.44421-20.511,9.44421-13.72364,0-24.64511-4.42637-32.61218-14.7563l-12.54392,11.36253c8.55861,11.5094,25.5289,18.00295,45.3031,18.00295,19.6254,0,37.77715-8.41186,37.77715-25.82458,0-18.0022-17.56015-20.51125-38.36701-23.02004Z"/>
      <g>
        <rect x="526.80847" y="171.28365" width="11.24603" height="13.16974"/>
        <path d="M659.83519,198.66188c-25.45141,0-43.35521,17.16471-43.35521,40.09916,0,23.37834,18.05123,40.09916,43.35521,40.09916,21.0105,0,35.36336-11.24441,39.95168-24.85804l-8.13922-4.14251c-3.69831,11.83734-15.09351,20.41895-31.81247,20.41895-18.7937,0-32.99732-11.69004-34.03295-29.44643h74.57618v-4.14226c0-21.15992-15.53765-38.02804-40.54324-38.02804ZM626.24456,233.13884c2.66449-15.98184,16.27662-26.0429,33.29397-26.0429,19.53261,0,30.62948,13.76117,31.37014,26.0429h-64.66411Z"/>
        <path d="M600.70188,178.53603c5.47466,0,9.46962.74047,14.05795,2.36772l1.77454-8.73065c-3.84754-1.62724-10.50525-2.51526-15.83249-2.51526-19.68009,0-31.3702,10.50693-31.3702,29.14959v1.3324h-18.19865v8.43406h18.19865v68.66175h9.76627v-68.66175h33.1448v-8.43406h-33.1448v-1.18311c0-13.61388,7.10365-20.42069,21.60393-20.42069Z"/>
        <rect x="527.54919" y="200.13984" width="9.76634" height="77.09581"/>
        <polygon points="454.04022 171.28365 443.68233 171.28365 443.68233 277.23564 510.58624 277.23564 510.58624 268.20991 454.04022 268.20991 454.04022 171.28365"/>
      </g>
    </g>
  </g>
</svg>
